<svg xmlns="http://www.w3.org/2000/svg" viewBox="0 0 485 485"><path d="M376 25h96c2 0 4 2 4 4v248c0 2-2 4-4 4h-96c-2 0-4-2-4-4v-248C372 27 373 25 376 25z" fill="#94A4A4"/><path d="M200 465c13 10 28 12 41 12 15 0 27-4 28-4 4-1 6-5 6-9v-86c0-29 14-54 41-73 21-15 43-21 43-21 0 0 0 0 1 0l5-2c3 5 8 8 15 8h89c9 0 17-8 17-17v-240c0-9-8-17-17-17h-89c-8 0-15 6-16 13 -12-13-29-21-48-21h-210c-45 0-73 23-78 64l-27 170c-4 25 6 50 26 64 11 8 24 12 38 12h109v80C174 429 183 452 200 465zM381 34h86v238h-86V34zM65 300c-10 0-19-3-27-9 -14-10-21-28-18-46l27-170c0 0 0 0 0 0 5-40 35-48 60-48h210c26 0 47 21 47 47v190l-8 3c-3 1-25 8-48 24 -32 23-49 53-49 88v79c-10 2-31 4-46-7 -13-9-19-27-19-52v-89c0-5-4-9-9-9h-118L65 300 65 300z" fill="#2C2F33"/></svg>