<svg xmlns="http://www.w3.org/2000/svg" viewBox="0 0 512 512"><path d="M26 503h26v-205H26V503z" fill="#54C9FD"/><path d="M9 503H26v-205H9V503z" fill="#FFF"/><path d="M472 342c7-5 8-15 3-22 -11-15-20-8-56 12l-74 34c-23 12-7 9-108 9 0 0 89 4 64-32 -12-18-32-28-55-28h-32c-20 0-38-6-54-17 -37-28-108 26-108 26v154h94c17 0 34-2 51-4L307 456c3 0 8-1 11-1l0 0c9-1 17-6 24-12L472 342z" fill="#FFDD09"/><path d="M500 320c-9-12-16-16-38-8 5 0 9 3 12 8 5 7 3 17-3 22L342 443c-7 6-15 11-24 12l0 0c-3 1-7 1-11 1L196 473c-17 3-34 4-51 4h26c17 0 34-2 51-4L333 456c3 0 8-1 11-1l0 0c9-1 17-6 24-12L497 342C504 336 505 327 500 320" fill="#FD9808"/><path d="M258 59C269 31 277 9 307 9c25 0 36 13 52 32 22 25 32 79-9 119C329 180 258 281 258 281s-96-101-118-121C98 121 108 66 131 40c16-18 38-32 62-32C223 9 247 30 258 59" fill="#DB4D6C"/><path d="M381 40c-16-19-37-32-62-32 -3 0-4 0-7 1 20 3 31 15 45 31 22 25 32 79-9 119 -18 18-73 94-88 116 20-22 94-98 112-116C414 119 404 64 381 40" fill="#D21F47"/><path d="M256 294l-6-7c-1-1-96-102-118-121C84 121 98 61 123 34 143 12 166 0 191 0c26 0 49 15 64 39C271 15 294 0 320 0c25 0 49 12 68 34 24 26 38 86-9 131 -20 20-117 120-118 121L256 294zM192 17c-20 0-38 9-56 28 -20 21-31 71 9 108 19 17 90 93 112 115 22-23 94-98 112-115 38-38 28-86 9-108C359 27 340 17 320 17c-24 0-46 17-57 45L256 82l-8-20C237 34 216 17 192 17z"/><path d="M171 486h-128V319l3-3c3-3 75-57 116-26 14 10 31 15 49 15h33c25 0 48 12 61 32 8 11 9 20 5 28 21 0 44-2 55-8l73-45c38-20 53-20 68 1 8 10 6 26-4 34l0 0L374 450c-9 8-18 13-28 15 -3 1-8 2-12 2L223 483C206 484 188 486 171 486zM60 469h111c16 0 33-1 49-3l113-17c3 0 6 0 9-1 8-1 15-4 20-10l1-1 130-101c3-3 3-8 2-10 -7-10-10-15-46 3l-73 45c-20 10-57 11-97 10 -2 0-3 0-4 0 -5 0-9 0-11 0l1-17c3 0 6 0 9 0 11-1 21-3 24-7 1-2 0-7-3-12 -12-16-29-25-49-25h-33c-22 0-43-7-59-19 -24-19-72 9-92 23C60 328 60 469 60 469zM497 342L497 342 497 342z"/><path d="M60 511H0v-94C0 412 3 409 9 409s9 3 9 9v77h26V307h-26v43c0 5-3 9-9 9S0 354 0 349v-60h60V511z"/><path d="M167 410c-5 0-9-3-9-9 0-21 16-34 43-34h83c5 0 9 3 9 9 0 5-3 9-9 9h-83c-26 0-26 13-26 17C176 406 172 410 167 410z"/><path d="M17 383c0 5-3 9-9 9S0 389 0 383s3-9 9-9S17 379 17 383"/></svg>