<svg id="Capa_1" enable-background="new 0 0 512 512" height="512" viewBox="0 0 512 512" width="512" xmlns="http://www.w3.org/2000/svg"><g><path d="m455.838 400.968-110.429-17.158c-2.436-.378-4.232-2.476-4.232-4.941v-32.925c0-2.761-2.239-5-5-5h-33.392c-10.6 4.086-22.114 6.331-34.154 6.331h-25.261c-12.04 0-23.555-2.245-34.155-6.331h-33.392c-2.761 0-5 2.239-5 5v32.925c0 2.465-1.797 4.562-4.232 4.941l-110.429 17.158c-12.179 1.892-21.162 12.378-21.162 24.703v73.829c0 2.761 2.239 5 5 5h432c2.761 0 5-2.239 5-5v-73.829c0-12.325-8.983-22.811-21.162-24.703z" fill="#fef1da"/><g><path d="m268.631 347.275h-25.261c-.625 0-1.247-.012-1.869-.024v157.249h29v-157.249c-.623.012-1.245.024-1.87.024z" fill="#fae2c0"/></g><g><g><path d="m70 499.149v-79.007c0-10.041 5.579-18.928 13.989-23.499l-27.827 4.324c-12.179 1.893-21.162 12.379-21.162 24.704v73.829c0 2.761 2.239 5 5 5h35.351c-2.955 0-5.351-2.396-5.351-5.351z" fill="#fae2c0"/></g></g><g fill="#554e56"><path d="m363.631 136.235v47.484h17.938c2.565 0 5.042.373 7.386 1.056v-48.54z"/><path d="m130.431 183.719h17.938v-47.484h-25.325v48.54c2.345-.683 4.822-1.056 7.387-1.056z"/></g><g fill="#ea9b58"><path d="m148.369 252.275v-68.556h-17.938c-14.569 0-26.38 11.811-26.38 26.38v20.049c0 14.569 11.811 26.38 26.38 26.38h18.038c-.062-1.411-.1-2.828-.1-4.253z"/><path d="m381.569 183.719h-17.938v68.556c0 1.426-.037 2.842-.099 4.253h18.038c14.569 0 26.38-11.811 26.38-26.38v-20.049c-.001-14.57-11.812-26.38-26.381-26.38z"/></g><path d="m276.721 304.012h-41.441c-47.999 0-86.91-38.911-86.91-86.91v35.173c0 52.467 42.533 95 95 95h25.261c52.467 0 95-42.533 95-95v-35.173c0 47.999-38.911 86.91-86.91 86.91z" fill="#554e56"/><path d="m187.367 289.616c-23.498-15.557-38.997-42.224-38.997-72.515v35.173c0 52.467 42.533 95 95 95h25.261c1.022 0 2.04-.022 3.054-.054-37.896-1.196-70.188-24.588-84.318-57.604z" fill="#433f43"/><path d="m148.369 136.235v80.867c0 47.999 38.911 86.91 86.91 86.91h41.441c47.999 0 86.91-38.911 86.91-86.91v-80.867z" fill="#ea9b58"/><path d="m179.739 217.102v-80.867h-31.369v80.867c0 47.999 38.911 86.91 86.91 86.91h31.369c-47.999 0-86.91-38.911-86.91-86.91z" fill="#d88a55"/><path d="m387.552 105.5-2.77-1h-257.565l-2.77 1c-.921 5.889-1.403 11.924-1.403 18.072v12.662h265.911v-12.662c0-6.148-.482-12.183-1.403-18.072z" fill="#4fc123"/><g><path d="m176.492 105.5h-52.045c-.921 5.889-1.403 11.924-1.403 18.072v12.662h52.045v-12.662c0-6.148.482-12.183 1.403-18.072z" fill="#47a920"/></g><g><path d="m124.448 105.5h263.105c-8.681-55.521-56.712-98-114.669-98h-33.766c-57.958 0-105.99 42.479-114.67 98z" fill="#fef1da"/></g><g><path d="m282.224 7.878c-3.082-.245-6.196-.378-9.341-.378h-33.766c-57.957 0-105.989 42.479-114.669 98h52.448c8.209-52.508 51.617-93.344 105.328-97.622z" fill="#fae2c0"/></g><g><path d="m252.307 247h12.663c7.044 0 12.776-5.731 12.776-12.776v-8.442c0-4.142-3.358-7.5-7.5-7.5s-7.5 3.358-7.5 7.5v6.218h-10.438c-1.683 0-3.052-1.369-3.052-3.052v-38.948c0-4.142-3.358-7.5-7.5-7.5s-7.5 3.358-7.5 7.5v38.949c-.001 9.953 8.097 18.051 18.051 18.051z"/><path d="m198.492 182.405c-4.142 0-7.5 3.358-7.5 7.5v14.693c0 4.142 3.358 7.5 7.5 7.5s7.5-3.358 7.5-7.5v-14.693c0-4.142-3.358-7.5-7.5-7.5z"/><path d="m313.508 182.405c-4.142 0-7.5 3.358-7.5 7.5v14.693c0 4.142 3.358 7.5 7.5 7.5s7.5-3.358 7.5-7.5v-14.693c0-4.142-3.358-7.5-7.5-7.5z"/><path d="m226.568 163.5c0-4.142-3.358-7.5-7.5-7.5h-42.208c-4.142 0-7.5 3.358-7.5 7.5s3.358 7.5 7.5 7.5h42.208c4.142 0 7.5-3.358 7.5-7.5z"/><path d="m292.932 171h42.208c4.142 0 7.5-3.358 7.5-7.5s-3.358-7.5-7.5-7.5h-42.208c-4.142 0-7.5 3.358-7.5 7.5s3.358 7.5 7.5 7.5z"/><path d="m216.835 257.197c-2.929 2.929-2.929 7.677 0 10.606 10.468 10.469 24.377 16.234 39.165 16.234s28.697-5.766 39.165-16.234c2.929-2.929 2.929-7.678 0-10.606-2.929-2.929-7.678-2.929-10.606 0-7.636 7.636-17.778 11.841-28.559 11.841s-20.923-4.205-28.559-11.841c-2.928-2.929-7.677-2.929-10.606 0z"/><path d="m456.99 393.557-108.313-16.829v-30.784c0-6.893-5.607-12.5-12.5-12.5h-5.034c21.372-16.501 36.078-41.238 39.31-69.416h11.116c18.682 0 33.88-15.199 33.88-33.88v-20.049c0-13.343-7.756-24.905-18.994-30.426v-56.101c0-6.422-.502-12.892-1.492-19.229 0-.001 0-.001 0-.002-4.502-28.794-19.192-55.194-41.365-74.338-22.408-19.348-51.073-30.003-80.715-30.003h-33.767c-29.642 0-58.307 10.655-80.715 30.003-22.172 19.144-36.862 45.545-41.364 74.338-.991 6.337-1.493 12.807-1.493 19.231v56.101c-11.238 5.521-18.994 17.083-18.994 30.426v20.049c0 18.682 15.199 33.88 33.88 33.88h11.116c3.232 28.178 17.937 52.915 39.31 69.416h-5.034c-6.893 0-12.5 5.607-12.5 12.5v30.784l-32.474 5.045c-4.093.636-6.896 4.47-6.26 8.563s4.472 6.892 8.563 6.26l34.592-5.375c6.13-.954 10.579-6.148 10.579-12.352v-30.425h29.579c8.255 3.055 17.007 5.075 26.098 5.903v142.653h-191.499v-71.329c0-8.687 6.23-15.959 14.813-17.292l40.838-6.345c4.093-.636 6.896-4.47 6.26-8.563s-4.475-6.896-8.563-6.26l-40.838 6.345c-15.94 2.477-27.51 15.983-27.51 32.115v73.829c0 6.893 5.607 12.5 12.5 12.5h432c6.893 0 12.5-5.607 12.5-12.5v-73.829c0-16.131-11.57-29.638-27.51-32.114zm-56.541-183.458v20.049c0 10.411-8.47 18.88-18.88 18.88h-10.439v-57.809h10.438c10.411 0 18.881 8.469 18.881 18.88zm-29.319-33.88v-32.484h10.325v32.484zm-230.26 72.809h-10.438c-10.411 0-18.88-8.47-18.88-18.88v-20.049c0-10.411 8.47-18.88 18.88-18.88h10.438zm0-72.809h-10.325v-32.484h10.325zm-10.326-47.485v-5.162c0-3.522.192-7.057.533-10.572h152.923c4.142 0 7.5-3.358 7.5-7.5s-3.358-7.5-7.5-7.5h-150.421c5.297-21.892 17.388-41.76 34.626-56.644 19.685-16.996 44.868-26.356 70.912-26.356h33.767c26.043 0 51.227 9.36 70.912 26.356 17.237 14.884 29.328 34.752 34.625 56.644h-58.421c-4.142 0-7.5 3.358-7.5 7.5s3.358 7.5 7.5 7.5h60.923c.34 3.516.532 7.051.532 10.572v5.162zm25.326 15h200.26v73.367c0 43.787-35.623 79.41-79.41 79.41h-41.441c-43.787 0-79.41-35.623-79.41-79.41v-73.367zm2.064 127.441c17.089 24.371 45.386 40.337 77.345 40.337h41.441c31.959 0 60.256-15.966 77.345-40.337-8.663 39.192-43.676 68.6-85.435 68.6h-25.26c-41.76 0-76.773-29.408-85.436-68.6zm311.566 225.825h-191.5v-53.5c0-4.142-3.358-7.5-7.5-7.5s-7.5 3.358-7.5 7.5v53.5h-14v-142.225h14v51.725c0 4.142 3.358 7.5 7.5 7.5s7.5-3.358 7.5-7.5v-52.153c9.092-.828 17.844-2.848 26.098-5.903h29.579v30.425c0 6.204 4.449 11.398 10.581 12.352l110.429 17.158c8.583 1.333 14.813 8.606 14.813 17.292z"/><circle cx="217.25" cy="377" r="7.5"/><circle cx="294.75" cy="377" r="7.5"/><circle cx="217.25" cy="426" r="7.5"/><circle cx="294.75" cy="426" r="7.5"/><circle cx="217.25" cy="475" r="7.5"/><circle cx="294.75" cy="475" r="7.5"/></g></g></svg>