<svg xmlns="http://www.w3.org/2000/svg" viewBox="0 0 505 505"><g transform="translate(1 4)"><path d="M345 214h119c19 0 34 20 34 39s-15 27-34 29c19 0 34 15 34 34s-15 34-34 34H447c19 0 34 15 34 34 0 19-15 34-34 34h-26c14 0 26 12 26 26 0 14-13 26-26 26h-128c-68 0-60-26-119-34H140v-205h34c17 0 43-17 68-43 34-34 34-77 34-145 0-9 7-17 17-17 34 0 51 17 51 51V214z" fill="#FFD0A1"/><polygon points="140 436 140 470 3 470 3 214 140 214 140 232 " fill="#AAB1BA"/><circle cx="72" cy="419" r="9" fill="#FFE079"/></g><path d="M422 479h-128c-39 0-54-9-69-17 -12-7-25-14-50-17 -3 0-4-3-3-5 1-3 3-4 5-3 27 4 41 12 54 18 15 9 29 15 66 15h128c11 0 21-10 21-21s-10-21-21-21c-3 0-4-2-4-4s2-4 4-4h26c16 0 30-14 30-30S466 358 450 358c-3 0-4-2-4-4 0-3 2-4 4-4h17c16 0 30-14 30-30 0-16-14-30-30-30 -3 0-4-2-4-4 0-3 2-4 3-4 20-3 31-10 31-25 0-16-13-35-30-35H347c-14 0-38-8-38-38 0-3 2-4 4-4s4 2 4 4c0 29 29 30 30 30h119c22 0 38 23 38 44 0 14-7 24-20 29 12 7 20 20 20 34 0 19-14 35-32 38 9 7 15 18 15 31 0 21-17 38-38 38h-5c6 5 9 13 9 21C452 464 438 479 422 479zM141 479H4c-3 0-4-2-4-4v-256c0-3 2-4 4-4H141c3 0 4 2 4 4v256C145 477 143 479 141 479zM9 470h128V223h-128V470zM73 436c-7 0-13-6-13-13 0-7 6-13 13-13 7 0 13 6 13 13C85 430 79 436 73 436zM73 419c-3 0-4 2-4 4 0 3 2 4 4 4 3 0 4-2 4-4C77 421 75 419 73 419zM175 240c-3 0-4-2-4-4s2-4 4-4c15 0 39-15 65-42 33-33 33-74 33-142 0-12 9-21 21-21 37 0 55 19 55 55v102c0 3-2 4-4 4s-4-2-4-4V82c0-32-15-47-47-47 -8 0-13 5-13 13 0 68 0 113-35 148C218 224 192 240 175 240z" fill="#51565F"/></svg>