<svg xmlns="http://www.w3.org/2000/svg" viewBox="0 0 502 502"><g transform="translate(1 4)"><path d="M345 281v137c0 34-17 51-51 51 -10 0-17-8-17-17 0-68 0-111-34-145 -26-26-51-43-68-43H140v-205h34c60-9 51-34 119-34h128c13 0 26 12 26 26s-12 26-26 26H447c19 0 34 15 34 34s-15 34-34 34h17c19 0 34 15 34 34s-15 34-34 34c20 3 34 10 34 29s-15 39-34 39H345z" fill="#FFD0A1"/><polygon points="140 264 140 281 3 281 3 25 140 25 140 60 " fill="#AAB1BA"/><circle cx="72" cy="222" r="9" fill="#FFE079"/></g><path d="M294 477c-12 0-21-9-21-21 0-68 0-109-33-142 -26-26-50-42-65-42 -3 0-4-2-4-4s2-4 4-4c17 0 44 16 72 44C282 343 282 388 282 456c0 8 5 13 13 13 32 0 47-15 47-47v-102c0-3 2-4 4-4s4 2 4 4v102C350 459 331 477 294 477zM311 324c-3 0-4-2-4-4 0-31 25-38 38-38h119c17 0 30-19 30-35 0-15-10-23-31-25 -3 0-4-3-3-4s2-4 4-4c16 0 30-14 30-30s-14-30-30-30H448c-3 0-4-2-4-4s2-4 4-4c16 0 30-14 30-30S464 85 448 85h-26c-3 0-4-2-4-4 0-3 2-4 4-4 11 0 21-10 21-21s-10-21-21-21h-128c-37 0-50 8-66 15 -12 7-26 15-54 18 -3 0-4-2-5-3 -1-2 2-4 3-5 26-3 38-10 50-17 15-9 31-17 69-17h128c15 0 30 15 30 30 0 9-3 16-9 21h5c21 0 38 17 38 38 0 12-6 23-15 31 18 3 32 19 32 38 0 15-9 27-20 34 14 5 20 15 20 30 0 20-16 44-38 44H344c-1 0-30 1-30 30C316 322 314 324 311 324zM141 290H4C2 290 0 288 0 285v-256c0-3 2-4 4-4H141c3 0 4 2 4 4v256C145 288 143 290 141 290zM9 281h128V34h-128V281zM73 239c-7 0-13-6-13-13 0-7 6-13 13-13 7 0 13 6 13 13C85 233 79 239 73 239zM73 221c-3 0-4 2-4 4 0 3 2 4 4 4 3 0 4-2 4-4C77 223 75 221 73 221z" fill="#51565F"/></svg>