<svg xmlns="http://www.w3.org/2000/svg" viewBox="0 0 507.7 507.7"><style>.a{fill:#FFD0A1;}.b{fill:#C49AE9;}.c{fill:#7EE1E6;}</style><path d="M169.4 157c14.5-9.4 35.8-21.3 59.7-26.5h0.9c-1.7 19.6-1.7 31.6-1.7 31.6h51.2c0 0 0-11.9-1.7-31.6h0.9c21.3 4.3 41 14.5 54.6 23.9l8.5-0.9c0 0 23-8.5 57.2-8.5 0 25.6-8.5 42.7-34.1 51.2 0 51.2-17.1 85.3-17.1 85.3l-17.1 25.6c0 0-25.6-17.1-76.8-17.1s-76.8 17.1-76.8 17.1L160 281.6c0 0-17.1-34.1-17.1-85.3 -25.6-8.5-34.1-25.6-34.1-51.2 34.1 0 57.2 8.5 57.2 8.5L169.4 157zM253.9 469.3c0-9.4-7.7-17.1-17.1-17.1h-17.1c-2.6 0-6 0.9-7.7 1.7l-0.9-1.7h-34.1 -8.5c0 0 0-51.2 17.1-76.8 0 0 7.7-10.2 14.5-16.2l0.9-0.9c13.7 10.2 31.6 17.9 52.9 17.9 20.5 0 38.4-6.8 52.1-17.1l0 0c9.4 6.8 16.2 16.2 16.2 16.2 17.1 25.6 17.1 76.8 17.1 76.8h-8.5 -33.3v2.6c-2.6-1.7-6-2.6-9.4-2.6h-17.1C261.5 452.3 253.9 459.9 253.9 469.3z" class="a"/><path d="M235.1 93.9L235.1 93.9c-1.7 12.8-3.4 24.7-4.3 34.1l0 0v2.6c-1.7 19.6-1.7 31.6-1.7 31.6h51.2c0 0 0-11.9-1.7-31.6 0-0.9 0-1.7 0-2.6h-23 23c-0.9-9.4-2.6-21.3-4.3-34.1l0 0c-3.4-24.7-9.4-53.8-19.6-85.3C244.5 40.1 238.5 69.1 235.1 93.9z" class="b"/><path d="M305.1 503.5h51.2v-34.1l0 0c0-9.4-7.7-17.1-17.1-17.1h-8.5 -33.3v2.6c2.6 1.7 4.3 3.4 5.1 6 -1.7-2.6-3.4-4.3-5.1-6 -2.6-1.7-6-2.6-9.4-2.6h-17.1c-9.4 0-17.1 7.7-17.1 17.1l0 0v8.5 25.6H305.1L305.1 503.5zM202.7 486.4v17.1h51.2v-25.6 -8.5l0 0c0-9.4-7.7-17.1-17.1-17.1h-17.1c-2.6 0-6 0.9-7.7 1.7 -2.6 1.7-5.1 3.4-6.8 6 1.7-2.6 3.4-4.3 6.8-6l-0.9-1.7h-34.1 -8.5c-9.4 0-17.1 7.7-17.1 17.1l0 0v34.1h51.2V486.4z" fill="#AAB1BA"/><path d="M253.9 290.1c51.2 0 76.8 17.1 76.8 17.1 5.1 15.4-5.1 36.7-24.7 51.2 -13.7 10.2-31.6 17.1-52.1 17.1 -21.3 0-39.3-7.7-52.9-17.9 -19.6-14.5-29-35.8-23.9-50.3C177.1 307.2 202.7 290.1 253.9 290.1" fill="#F2EDDA"/><circle cx="44.1" cy="68.3" r="8.5" class="a"/><circle cx="411" cy="8.5" r="8.5" class="c"/><circle cx="172.1" cy="85.3" r="8.5" class="c"/><circle cx="334.2" cy="102.4" r="8.5" class="b"/><path d="M356.3 507.7h-204.8c-2.6 0-4.3-1.7-4.3-4.3v-34.1 -0.9c0-9.4 7.7-17.9 17.1-19.6 0-12.8 2.6-52.9 17.9-75.1 1.7-1.7 4.3-2.6 6-0.9 1.7 1.7 2.6 4.3 0.9 6 -13.7 19.6-16.2 57.2-16.2 70h4.3c2.6 0 4.3 1.7 4.3 4.3 0 2.6-1.7 4.3-4.3 4.3h-8.5c-6.8 0-12.8 5.1-12.8 12.8v29.9H198.4v-30.7 -0.9c0-9.4 6.8-17.9 16.2-19.6l-7.7-55.5c0-2.6 1.7-4.3 3.4-5.1 2.6 0 4.3 1.7 5.1 3.4l7.7 56.3H236.8c5.1 0 9.4 1.7 12.8 4.3V409.6c0-2.6 1.7-4.3 4.3-4.3 2.6 0 4.3 1.7 4.3 4.3v42.7c3.4-2.6 7.7-4.3 12.8-4.3h13.7l7.7-56.3c0-2.6 2.6-4.3 5.1-3.4 2.6 0 4.3 2.6 3.4 5.1l-7.7 55.5c9.4 1.7 16.2 10.2 16.2 20.5v0.9 29.9H352v-30.7c0-7.7-6-12.8-12.8-12.8h-8.5c-2.6 0-4.3-1.7-4.3-4.3s1.7-4.3 4.3-4.3h4.3c-0.9-12.8-2.6-50.3-16.2-70 -1.7-1.7-0.9-4.3 0.9-6 1.7-1.7 4.3-0.9 6 0.9 15.4 22.2 17.1 62.3 17.9 75.1 9.4 1.7 17.1 10.2 17.1 20.5v35C360.5 506 358.8 507.7 356.3 507.7zM258.1 499.2H300.8v-29.9l0 0c0-6.8-6-12.8-12.8-12.8l0 0h-17.1c-6.8 0-12.8 5.1-12.8 12.8V499.2zM206.9 499.2H249.6v-29.9l0 0c0-6.8-6-12.8-12.8-12.8h-17.1l0 0c-6.8 0-12.8 5.1-12.8 12.8V499.2zM253.9 379.7c-34.1 0-59.7-17.9-71.7-35 -9.4-13.7-12.8-27.3-9.4-38.4 0-0.9 0.9-1.7 1.7-2.6 0.9-0.9 27.3-17.9 79.4-17.9s77.7 17.1 79.4 17.9c0.9 0.9 1.7 1.7 1.7 2.6 3.4 11.1 0.9 25.6-9.4 38.4C313.6 361.8 288 379.7 253.9 379.7zM180.5 309.8c-1.7 8.5 0.9 19.6 8.5 29.9 11.1 15.4 34.1 31.6 64.9 31.6s53.8-16.2 64.9-31.6c7.7-10.2 10.2-21.3 8.5-29.9 -6-3.4-29.9-15.4-73.4-15.4C211.2 294.4 186.5 307.2 180.5 309.8zM279.5 337.1c-2.6 0-4.3-1.7-4.3-4.3v-8.5c0-2.6 1.7-4.3 4.3-4.3s4.3 1.7 4.3 4.3v8.5C283.7 335.4 282 337.1 279.5 337.1zM228.3 337.1c-2.6 0-4.3-1.7-4.3-4.3v-8.5c0-2.6 1.7-4.3 4.3-4.3s4.3 1.7 4.3 4.3v8.5C232.5 335.4 230.8 337.1 228.3 337.1zM160 285.9c-1.7 0-3.4-0.9-3.4-2.6 -0.9-1.7-17.1-34.1-17.9-84.5 -23.9-8.5-34.1-25.6-34.1-54.6 0-2.6 1.7-4.3 4.3-4.3 34.1 0 57.2 8.5 58 8.5 0.9 0.9 1.7 1.7 2.6 2.6 14.5-9.4 34.1-19.6 56.3-24.7 2.6-28.2 9.4-71.7 23.9-119.5 0.9-3.4 6.8-3.4 8.5 0 14.5 47.8 20.5 91.3 23.9 119.5 22.2 5.1 41.8 16.2 56.3 24.7 0.9-0.9 1.7-1.7 2.6-2.6 0.9 0 23.9-8.5 58.9-8.5 2.6 0 4.3 1.7 4.3 4.3 0 28.2-10.2 45.2-34.1 54.6 -0.9 50.3-17.1 82.8-17.9 84.5 -0.9 1.7-3.4 2.6-6 1.7 -1.7-0.9-2.6-3.4-1.7-6 0 0 16.2-34.1 16.2-83.6 0-1.7 0.9-3.4 2.6-4.3 21.3-6.8 29.9-19.6 30.7-42.7 -24.7 0.9-43.5 6-49.5 7.7 8.5 6 13.7 10.2 13.7 10.2 1.7 1.7 1.7 4.3 0.9 6 -1.7 1.7-4.3 1.7-6 0.9 0 0-32.4-28.2-70.8-38.4 1.7 16.2 1.7 25.6 1.7 26.5l0 0 0 0c0 2.6-1.7 4.3-4.3 4.3h-51.2c-2.6 0-4.3-1.7-4.3-4.3l0 0 0 0c0-0.9 0-10.2 1.7-26.5 -38.4 10.2-70.8 37.5-70.8 38.4 -1.7 1.7-4.3 1.7-6-0.9 -1.7-1.7-1.7-4.3 0.9-6 0.9-0.9 5.1-5.1 13.7-10.2 -6-1.7-23.9-6.8-49.5-7.7 0.9 23 10.2 35.8 30.7 42.7 1.7 0.9 2.6 2.6 2.6 4.3 0 49.5 16.2 82.8 16.2 83.6 0.9 1.7 0 4.3-1.7 6C161.7 285.9 160.9 285.9 160 285.9zM232.5 157.9H275.2c0-5.1-0.9-13.7-1.7-25.6H234.2C233.4 144.2 232.5 152.7 232.5 157.9zM235.1 123.7h37.5c-0.9-7.7-1.7-16.2-3.4-25.6h-30.7C236.8 107.5 235.9 116.1 235.1 123.7zM239.4 89.6h28.2c-3.4-19.6-7.7-41.8-14.5-65.7C247 47.8 242.8 70 239.4 89.6zM450.1 251.7c-2.6 0-4.3-1.7-4.3-4.3v-12.8h-12.8c-2.6 0-4.3-1.7-4.3-4.3 0-2.6 1.7-4.3 4.3-4.3h12.8v-12.8c0-2.6 1.7-4.3 4.3-4.3s4.3 1.7 4.3 4.3v12.8h12.8c2.6 0 4.3 1.7 4.3 4.3 0 2.6-1.7 4.3-4.3 4.3h-12.8v12.8C454.4 250 452.7 251.7 450.1 251.7zM300.8 234.7c-5.1 0-8.5-3.4-8.5-8.5s3.4-8.5 8.5-8.5 8.5 3.4 8.5 8.5S305.9 234.7 300.8 234.7zM206.9 234.7c-5.1 0-8.5-3.4-8.5-8.5s3.4-8.5 8.5-8.5c5.1 0 8.5 3.4 8.5 8.5S212.1 234.7 206.9 234.7zM91.7 226.1c-2.6 0-4.3-1.7-4.3-4.3V217.6H83.2c-2.6 0-4.3-1.7-4.3-4.3s1.7-4.3 4.3-4.3h4.3V204.8c0-2.6 1.7-4.3 4.3-4.3S96 202.2 96 204.8v4.3h4.3c2.6 0 4.3 1.7 4.3 4.3s-1.7 4.3-4.3 4.3H96v4.3C96 224.4 94.3 226.1 91.7 226.1zM23.5 140.8c-2.6 0-4.3-1.7-4.3-4.3v-12.8H6.4c-2.6 0-4.3-1.7-4.3-4.3 0-2.6 1.7-4.3 4.3-4.3h12.8v-12.8c0-2.6 1.7-4.3 4.3-4.3s4.3 1.7 4.3 4.3v12.8h12.8c2.6 0 4.3 1.7 4.3 4.3 0 2.6-1.7 4.3-4.3 4.3h-12.8v12.8C27.7 139.1 26 140.8 23.5 140.8zM492.8 55.5c-2.6 0-4.3-1.7-4.3-4.3v-4.3h-4.3c-2.6 0-4.3-1.7-4.3-4.3 0-2.6 1.7-4.3 4.3-4.3h4.3v-4.3c0-2.6 1.7-4.3 4.3-4.3s4.3 1.7 4.3 4.3V38.4h4.3c2.6 0 4.3 1.7 4.3 4.3 0 2.6-1.7 4.3-4.3 4.3h-4.3V51.2C497.1 53.8 495.4 55.5 492.8 55.5zM108.8 29.9c-2.6 0-4.3-1.7-4.3-4.3v-4.3h-4.3c-2.6 0-4.3-1.7-4.3-4.3s1.7-4.3 4.3-4.3h4.3V8.5c0-2.6 1.7-4.3 4.3-4.3 2.6 0 4.3 1.7 4.3 4.3V12.8h4.3c2.6 0 4.3 1.7 4.3 4.3s-1.7 4.3-4.3 4.3h-4.3V25.6C113.1 28.2 111.4 29.9 108.8 29.9z" fill="#51565F"/></svg>