<svg xmlns="http://www.w3.org/2000/svg" viewBox="0 0 512 512"><style>.a{fill:#E4EAF8;}</style><path d="M283.1 142.5h-54.3c-4.2 0-7.8 3-8.5 7.2l-59 354.2h189.3l-59-354.2C290.9 145.6 287.3 142.5 283.1 142.5z" fill="#9A7863"/><path d="M272.6 142.5h-43.7c-4.2 0-7.8 3-8.5 7.2l-59 354.2h60.2l39.4-347C262 148.6 266.9 142.5 272.6 142.5z" fill="#8C695C"/><rect x="79.2" y="293.8" transform="matrix(-0.7071 0.7071 -0.7071 -0.7071 519.7812 415.4047)" width="189.3" height="43" class="a"/><rect x="316.6" y="-4.4" transform="matrix(-0.7071 -0.7071 0.7071 -0.7071 513.4592 393.1061)" width="43" height="189.3" class="a"/><rect x="121.9" y="26" transform="matrix(0.7071 -0.7071 0.7071 0.7071 -43.294 136.7563)" width="43" height="189.3" class="a"/><rect x="273.9" y="263.4" transform="matrix(-0.7071 -0.7071 0.7071 -0.7071 427.7065 747.0269)" width="189.3" height="43" class="a"/><path d="M281.8 503.9v-34.4c0-14.3-11.6-25.8-25.8-25.8l0 0c-14.3 0-25.8 11.6-25.8 25.8v34.4" fill="#464655"/><circle cx="256" cy="202.8" r="17.2" fill="#AFB9D2"/><path d="M456.4 330.9L322.6 197.1c-3.2-3.2-8.3-3.2-11.4 0l-3 3 -5.4-32.6 123.2-123.2c3.2-3.2 3.2-8.3 0-11.4L395.6 2.4C394.1 0.9 392 0 389.9 0s-4.2 0.9-5.7 2.4L252.1 134.4h-23.2c-8 0-14.8 5.6-16.3 13.5L97.4 32.8c-2.8-2.8-7-3.1-10.1-1 -0.4 0.3-0.9 0.6-1.3 1L55.6 63.2c-1.5 1.5-2.4 3.6-2.4 5.7s0.9 4.2 2.4 5.7l133.9 133.9c1.6 1.6 3.6 2.4 5.7 2.4s4.1-0.8 5.7-2.4l1.9-1.9 -7.6 45.6L86 361.4c-3.2 3.2-3.2 8.3 0 11.4l30.4 30.4c1.5 1.5 3.6 2.4 5.7 2.4s4.2-0.8 5.7-2.4l50.5-50.5 -23.9 143.2h-19c-4.5 0-8.1 3.6-8.1 8.1 0 4.5 3.6 8.1 8.1 8.1h240.9c4.5 0 8.1-3.6 8.1-8.1 0-4.5-3.6-8.1-8.1-8.1h-19l-36-216.2 93.1 93.1c1.4 1.4 3.1 2.2 4.9 2.3 0.3 0 0.5 0 0.8 0 2.1 0 4.1-0.8 5.7-2.4l30.4-30.4c1.5-1.5 2.4-3.6 2.4-5.7S457.9 332.5 456.4 330.9zM246.9 202.8c0-5 4.1-9.1 9.1-9.1 5 0 9.1 4.1 9.1 9.1 0 5-4.1 9.1-9.1 9.1C251 211.9 246.9 207.8 246.9 202.8zM286.4 221.8l-7.8-7.8c1.7-3.4 2.6-7.2 2.6-11.2 0-4-1-7.8-2.6-11.2l10.1-10.1 5.4 32.6L286.4 221.8zM389.9 19.5l19 19L286.4 161l-19-19L389.9 19.5zM228.3 151c0-0.3 0.3-0.4 0.5-0.4h24.4l21.8 21.8 -7.8 7.8c-3.4-1.7-7.2-2.6-11.2-2.6s-7.8 1-11.2 2.6l-18.2-18.2L228.3 151zM195.2 191.4L72.7 68.9l19-19 122.5 122.5L195.2 191.4zM222.3 187l3.2-3.2 7.8 7.8c-1.7 3.4-2.6 7.2-2.6 11.2 0 4 1 7.8 2.6 11.2l-18.6 18.6L222.3 187zM122.1 386.1l-19-19 122.5-122.5 19 19L122.1 386.1zM273.7 495.9h-35.5v-26.4c0-9.8 8-17.7 17.7-17.7s17.7 8 17.7 17.7V495.9zM341.1 495.9h-51.3v-26.4c0-18.7-15.2-33.9-33.9-33.9s-33.9 15.2-33.9 33.9v26.4h-51.3l27.1-162.8 63.7-63.7c3.2-3.2 3.2-8.3 0-11.4l-24.7-24.7 7.8-7.8c3.4 1.7 7.2 2.6 11.2 2.6 4 0 7.8-1 11.2-2.6l34.6 34.6L341.1 495.9zM420.3 355.7L297.8 233.2l19-19 122.5 122.5L420.3 355.7z"/><path d="M256 306.5c-4.5 0-8.1 3.6-8.1 8.1v8.6c0 4.5 3.6 8.1 8.1 8.1 4.5 0 8.1-3.6 8.1-8.1v-8.6C264.1 310.2 260.5 306.5 256 306.5z"/><path d="M256 358.2c-4.5 0-8.1 3.6-8.1 8.1v8.6c0 4.5 3.6 8.1 8.1 8.1 4.5 0 8.1-3.6 8.1-8.1v-8.6C264.1 361.8 260.5 358.2 256 358.2z"/></svg>