<?xml version="1.0" encoding="iso-8859-1"?>
<!-- Generator: Adobe Illustrator 19.0.0, SVG Export Plug-In . SVG Version: 6.00 Build 0)  -->
<svg version="1.1" id="Layer_1" xmlns="http://www.w3.org/2000/svg" xmlns:xlink="http://www.w3.org/1999/xlink" x="0px" y="0px"
	 viewBox="0 0 511.653 511.653" style="enable-background:new 0 0 511.653 511.653;" xml:space="preserve">
<g transform="translate(0 1)">
	<path style="fill:#54C9FD;" d="M25.6,501.866h25.6v-204.8H25.6V501.866z"/>
	<path style="fill:#FFFFFF;" d="M8.533,501.866H25.6v-204.8H8.533V501.866z"/>
	<path style="fill:#FFDD09;" d="M471.893,341.44c6.827-5.12,7.68-15.36,2.56-22.187c-11.093-14.507-19.627-7.68-56.32,11.947
		l-74.24,34.133c-23.04,11.947-6.827,8.533-107.52,8.533c0,0,88.747,4.267,64-31.573c-11.947-17.92-32.427-28.16-54.613-28.16
		h-32.427c-19.627,0-38.4-5.973-53.76-17.067c-36.693-28.16-108.373,25.6-108.373,25.6v153.6h93.867
		c17.067,0,34.133-1.707,51.2-4.267L307.2,454.933c3.413,0,7.68-0.853,11.093-0.853l0,0c9.387-0.853,17.067-5.973,23.893-11.947
		L471.893,341.44z"/>
	<path style="fill:#FD9808;" d="M500.053,319.253c-8.533-11.947-16.213-16.213-37.547-7.68c5.12,0,8.533,2.56,11.947,7.68
		c5.12,6.827,3.413,17.067-2.56,22.187L342.187,442.133c-6.827,5.973-14.507,11.093-23.893,11.947l0,0
		c-3.413,0.853-6.827,0.853-11.093,0.853L196.267,472c-17.067,2.56-34.133,4.267-51.2,4.267h25.6c17.067,0,34.133-1.707,51.2-4.267
		L332.8,454.933c3.413,0,7.68-0.853,11.093-0.853l0,0c9.387-0.853,17.067-5.973,23.893-11.947L497.493,341.44
		C504.32,335.466,505.173,326.08,500.053,319.253"/>
	<path style="fill:#DB4D6C;" d="M257.707,58.133C268.8,29.973,277.333,7.786,307.2,7.786c24.747,0,35.84,12.8,52.053,31.573
		c22.187,24.747,32.427,79.36-9.387,119.467C328.533,179.306,257.707,280,257.707,280s-96.427-100.693-117.76-121.173
		C98.133,119.573,107.52,64.96,130.56,39.36c16.213-17.92,37.547-31.573,62.293-31.573C222.72,7.786,246.613,29.12,257.707,58.133"
		/>
	<path style="fill:#D21F47;" d="M381.44,38.506c-16.213-18.773-36.693-31.573-62.293-31.573c-2.56,0-4.267,0-6.827,0.853
		c20.48,2.56,30.72,14.507,45.227,30.72c22.187,24.747,32.427,79.36-9.387,119.467c-17.92,17.92-72.533,93.867-87.893,116.053
		c20.48-22.187,93.867-98.133,111.787-116.053C413.867,117.866,404.48,63.253,381.44,38.506"/>
	<path d="M256,292.8l-5.973-6.827c-0.853-0.853-96.427-101.547-117.76-121.173C84.48,119.573,98.133,59.84,122.88,33.386
		C143.36,11.2,166.4-0.747,191.147-0.747c25.6,0,49.493,14.507,64,39.253C270.507,13.76,293.547-0.747,320-0.747
		c24.747,0,48.64,11.947,68.267,34.133c23.893,26.453,37.547,86.187-9.387,131.413c-20.48,20.48-116.907,120.32-117.76,121.173
		L256,292.8z M192,16.32c-19.627,0-38.4,9.387-56.32,28.16c-19.627,21.333-30.72,70.827,8.533,107.52
		c18.773,17.067,90.453,93.013,111.787,115.2c22.187-23.04,93.867-98.133,111.787-115.2c38.4-37.547,28.16-86.187,8.533-107.52
		C359.253,25.706,340.48,16.32,320,16.32c-23.893,0-46.08,17.067-57.173,45.227L256,81.173l-7.68-20.48
		C237.227,33.386,215.893,16.32,192,16.32z"/>
	<path d="M170.667,484.8h-128V318.4l3.413-2.56c3.413-2.56,75.093-57.173,116.053-26.453c13.653,10.24,30.72,15.36,48.64,15.36
		h33.28c24.747,0,47.787,11.947,61.44,31.573c7.68,11.093,9.387,20.48,5.12,28.16c21.333,0,44.373-1.707,54.613-7.68l73.387-45.227
		c37.547-19.627,52.907-19.627,68.267,0.853c7.68,10.24,5.973,25.6-4.267,34.133l0,0L373.76,448.96
		c-8.533,7.68-17.92,12.8-28.16,14.507c-3.413,0.853-7.68,1.707-11.947,1.707L222.72,482.24
		C205.653,483.093,187.733,484.8,170.667,484.8z M59.733,467.733h110.933c16.213,0,33.28-0.853,49.493-3.413l112.64-17.067
		c3.413,0,5.973,0,9.387-0.853c7.68-0.853,14.507-4.267,19.627-10.24l0.853-0.853l129.707-100.693
		c3.413-2.56,3.413-7.68,1.707-10.24c-6.827-10.24-10.24-14.507-46.08,3.413l-73.387,45.227
		c-19.627,10.24-57.173,11.093-97.28,10.24c-1.707,0-3.413,0-4.267,0c-5.12,0-8.533,0-11.093,0l0.853-17.067c2.56,0,5.973,0,9.387,0
		c11.093-0.853,21.333-2.56,23.893-6.827c0.853-1.707,0-6.827-3.413-11.947c-11.947-16.213-29.013-24.747-48.64-24.747h-33.28
		c-22.187,0-42.667-6.827-58.88-18.773c-23.893-18.773-71.68,8.533-92.16,23.04C59.733,326.933,59.733,467.733,59.733,467.733z
		 M497.493,341.44L497.493,341.44L497.493,341.44z"/>
	<path d="M59.733,510.4H0v-93.867C0,411.413,3.413,408,8.533,408s8.533,3.413,8.533,8.533v76.8h25.6V305.6h-25.6v42.667
		c0,5.12-3.413,8.533-8.533,8.533S0,353.386,0,348.266v-59.733h59.733V510.4z"/>
	<path d="M167.253,408.853c-5.12,0-8.533-3.413-8.533-8.533c0-21.333,16.213-34.133,42.667-34.133h82.773
		c5.12,0,8.533,3.413,8.533,8.533c0,5.12-3.413,8.533-8.533,8.533h-82.773c-25.6,0-25.6,12.8-25.6,17.067
		C175.787,405.44,172.373,408.853,167.253,408.853z"/>
	<path d="M17.067,382.4c0,5.12-3.413,8.533-8.533,8.533S0,387.52,0,382.4s3.413-8.533,8.533-8.533S17.067,378.133,17.067,382.4"/>
</g>
<g>
</g>
<g>
</g>
<g>
</g>
<g>
</g>
<g>
</g>
<g>
</g>
<g>
</g>
<g>
</g>
<g>
</g>
<g>
</g>
<g>
</g>
<g>
</g>
<g>
</g>
<g>
</g>
<g>
</g>
</svg>
