<?xml version="1.0" encoding="iso-8859-1"?>
<!-- Generator: Adobe Illustrator 19.0.0, SVG Export Plug-In . SVG Version: 6.00 Build 0)  -->
<svg version="1.1" id="Layer_1" xmlns="http://www.w3.org/2000/svg" xmlns:xlink="http://www.w3.org/1999/xlink" x="0px" y="0px"
	 viewBox="0 0 512 512" style="enable-background:new 0 0 512 512;" xml:space="preserve">
<path style="fill:#9A7863;" d="M283.131,142.512h-54.263c-4.207,0-7.796,3.041-8.488,7.191l-59.039,354.23h189.316l-59.039-354.23
	C290.928,145.553,287.338,142.512,283.131,142.512z"/>
<path style="fill:#8C695C;" d="M272.59,142.512h-43.721c-4.207,0-7.796,3.041-8.488,7.191l-59.039,354.23h60.237l39.437-347.039
	C261.958,148.593,266.853,142.512,272.59,142.512z"/>
<g>
	
		<rect x="79.201" y="293.84" transform="matrix(-0.7071 0.7071 -0.7071 -0.7071 519.7812 415.4047)" style="fill:#E4EAF8;" width="189.314" height="43.026"/>
	
		<rect x="316.632" y="-4.445" transform="matrix(-0.7071 -0.7071 0.7071 -0.7071 513.4592 393.1061)" style="fill:#E4EAF8;" width="43.026" height="189.314"/>
	
		<rect x="121.92" y="25.982" transform="matrix(0.7071 -0.7071 0.7071 0.7071 -43.294 136.7563)" style="fill:#E4EAF8;" width="43.026" height="189.314"/>
	
		<rect x="273.911" y="263.42" transform="matrix(-0.7071 -0.7071 0.7071 -0.7071 427.7065 747.0269)" style="fill:#E4EAF8;" width="189.314" height="43.026"/>
</g>
<path style="fill:#464655;" d="M281.816,503.933v-34.421c0-14.258-11.558-25.816-25.816-25.816l0,0
	c-14.258,0-25.816,11.558-25.816,25.816v34.421"/>
<circle style="fill:#AFB9D2;" cx="255.996" cy="202.783" r="17.211"/>
<path d="M456.42,330.944L322.553,197.078c-3.151-3.151-8.259-3.151-11.408,0l-2.957,2.957l-5.433-32.598l123.24-123.24
	c3.151-3.151,3.151-8.259,0-11.408L395.571,2.363C394.058,0.85,392.006,0,389.867,0s-4.192,0.85-5.704,2.363L252.081,134.444
	h-23.213c-8.019,0-14.808,5.632-16.344,13.453L97.415,32.787c-2.757-2.757-7.012-3.101-10.143-1.034
	c-0.447,0.296-0.871,0.64-1.266,1.034L55.58,63.212c-1.513,1.512-2.363,3.565-2.363,5.704s0.85,4.192,2.363,5.704l133.867,133.867
	c1.575,1.575,3.64,2.363,5.704,2.363s4.129-0.787,5.704-2.363l1.858-1.858l-7.606,45.636L86.005,361.368
	c-3.151,3.151-3.151,8.259,0,11.408l30.424,30.425c1.512,1.513,3.565,2.363,5.704,2.363s4.192-0.85,5.704-2.363l50.537-50.537
	l-23.867,143.2h-18.981c-4.455,0-8.067,3.612-8.067,8.067c0,4.455,3.612,8.067,8.067,8.067h240.947c4.455,0,8.067-3.612,8.067-8.067
	c0-4.455-3.612-8.067-8.067-8.067h-18.981l-36.037-216.219l93.13,93.13c1.378,1.379,3.131,2.153,4.931,2.326
	c0.257,0.025,0.515,0.037,0.773,0.037c2.064,0,4.129-0.787,5.704-2.363l30.425-30.424c1.513-1.512,2.363-3.565,2.363-5.704
	S457.933,332.457,456.42,330.944z M246.857,202.783c0-5.042,4.101-9.143,9.143-9.143c5.042,0,9.143,4.101,9.143,9.143
	c0,5.042-4.102,9.143-9.143,9.143C250.958,211.926,246.857,207.825,246.857,202.783z M286.424,221.797l-7.787-7.786
	c1.687-3.385,2.64-7.197,2.64-11.229c0-4.032-0.954-7.844-2.64-11.229l10.095-10.095l5.434,32.597L286.424,221.797z M389.867,19.476
	l19.015,19.015L286.424,160.95l-19.015-19.015L389.867,19.476z M228.338,151.029c0.044-0.26,0.267-0.45,0.53-0.45h24.368
	l21.779,21.779l-7.787,7.786c-3.385-1.687-7.197-2.64-11.229-2.64s-7.844,0.954-11.229,2.64l-18.245-18.244L228.338,151.029z
	 M195.152,191.373L72.694,68.916l19.015-19.015l122.457,122.457L195.152,191.373z M222.343,187l3.233-3.233l7.787,7.786
	c-1.687,3.385-2.64,7.197-2.64,11.229c0,4.032,0.954,7.844,2.64,11.229l-18.625,18.625L222.343,187z M122.133,386.089
	l-19.015-19.015l122.458-122.458l19.015,19.015L122.133,386.089z M273.748,495.865h-35.497v-26.354
	c0-9.786,7.962-17.748,17.748-17.748s17.748,7.962,17.748,17.748V495.865z M341.135,495.865h-51.251v-26.354
	c0-18.683-15.2-33.883-33.883-33.883s-33.883,15.2-33.883,33.883v26.354h-51.251l27.138-162.83l63.7-63.702
	c3.151-3.151,3.151-8.259,0-11.408l-24.72-24.72l7.786-7.786c3.385,1.687,7.197,2.64,11.23,2.64c4.032,0,7.844-0.954,11.229-2.64
	l34.597,34.597L341.135,495.865z M420.29,355.664L297.833,233.207l19.015-19.015l122.457,122.457L420.29,355.664z"/>
<path d="M256,306.549c-4.455,0-8.067,3.612-8.067,8.067v8.605c0,4.455,3.612,8.067,8.067,8.067c4.455,0,8.067-3.612,8.067-8.067
	v-8.605C264.067,310.161,260.455,306.549,256,306.549z"/>
<path d="M256,358.181c-4.455,0-8.067,3.612-8.067,8.067v8.605c0,4.455,3.612,8.067,8.067,8.067c4.455,0,8.067-3.612,8.067-8.067
	v-8.605C264.067,361.793,260.455,358.181,256,358.181z"/>
<g>
</g>
<g>
</g>
<g>
</g>
<g>
</g>
<g>
</g>
<g>
</g>
<g>
</g>
<g>
</g>
<g>
</g>
<g>
</g>
<g>
</g>
<g>
</g>
<g>
</g>
<g>
</g>
<g>
</g>
</svg>
